<svg width="26" height="26" viewBox="0 0 26 26" fill="none" xmlns="http://www.w3.org/2000/svg">
<path fill-rule="evenodd" clip-rule="evenodd" d="M12.8089 16.2556L21.4263 24.8746C21.8836 25.3318 22.5038 25.5887 23.1504 25.5887C23.7971 25.5887 24.4173 25.3318 24.8746 24.8746C25.3318 24.4173 25.5887 23.7971 25.5887 23.1505C25.5887 22.5038 25.3318 21.8836 24.8746 21.4263L16.2539 12.809L24.8729 4.19158C25.0992 3.96517 25.2787 3.69639 25.4012 3.40061C25.5236 3.10482 25.5866 2.78782 25.5865 2.46769C25.5864 2.14757 25.5233 1.83059 25.4007 1.53487C25.2782 1.23914 25.0985 0.970452 24.8721 0.744143C24.6457 0.517835 24.3769 0.338338 24.0811 0.215902C23.7854 0.0934651 23.4684 0.0304865 23.1482 0.030562C22.8281 0.0306374 22.5111 0.093765 22.2154 0.216341C21.9197 0.338917 21.651 0.518541 21.4247 0.744956L12.8089 9.36233L4.19155 0.744956C3.96681 0.512046 3.69793 0.326228 3.40061 0.198343C3.10328 0.0704573 2.78347 0.00306619 2.45982 0.000102219C2.13617 -0.00286175 1.81518 0.0586602 1.51556 0.181079C1.21595 0.303497 0.94371 0.48436 0.71474 0.713115C0.485769 0.941869 0.30465 1.21393 0.181949 1.51344C0.0592481 1.81294 -0.00257654 2.13387 8.22522e-05 2.45752C0.00274104 2.78117 0.0698298 3.10105 0.197435 3.3985C0.325039 3.69594 0.510604 3.96499 0.743302 4.18996L9.36393 12.809L0.744928 21.4263C0.287661 21.8836 0.0307714 22.5038 0.0307714 23.1505C0.0307714 23.7971 0.287661 24.4173 0.744928 24.8746C1.20219 25.3318 1.82238 25.5887 2.46905 25.5887C3.11572 25.5887 3.73591 25.3318 4.19318 24.8746L12.8089 16.254V16.2556Z" fill="white"/>
</svg>
