<svg width="24" height="24" viewBox="0 0 24 24" fill="none" xmlns="http://www.w3.org/2000/svg">
<circle cx="12" cy="12" r="11.5" fill="white" stroke="#1572B6"/>
<path d="M7.76668 17.7505L6.71387 5.9375H18.2864L17.2321 17.7486L12.4931 19.0625L7.76668 17.7505Z" fill="#1572B6"/>
<path d="M12.5 18.0584L16.3297 16.9967L17.2306 6.90356H12.5V18.0584Z" fill="#33A9DC"/>
<path d="M12.5 11.1832H14.4172L14.5494 9.69964H12.5V8.25073H16.1328L16.0981 8.63933L15.7423 12.6321H12.5V11.1832Z" fill="white"/>
<path d="M12.5087 14.946L12.5021 14.9479L10.8887 14.5119L10.7856 13.3564H9.33105L9.53402 15.6313L12.5017 16.4554L12.5087 16.4535V14.946Z" fill="#EBEBEB"/>
<path d="M14.2941 12.5708L14.1197 14.511L12.5039 14.9469V16.4544L15.4739 15.6313L15.4959 15.3866L15.7477 12.5708H14.2941Z" fill="white"/>
<path d="M12.5055 8.25073V9.69964H9.00582L8.97676 9.37386L8.91066 8.63933L8.87598 8.25073H12.5055ZM12.5004 11.1832V12.6321H10.9071L10.878 12.3064L10.8124 11.5718L10.7777 11.1832H12.5004Z" fill="#EBEBEB"/>
</svg>
