<svg width="24" height="24" viewBox="0 0 24 24" fill="none" xmlns="http://www.w3.org/2000/svg">
<circle cx="12" cy="12" r="11.5" fill="white" stroke="#E65737"/>
<g clip-path="url(#clip0_750_1128)">
<path d="M10.25 18.9999C11.492 18.9999 12.5 17.9546 12.5 16.6666V14.3333H10.25C9.008 14.3333 8 15.3786 8 16.6666C8 17.9546 9.008 18.9999 10.25 18.9999Z" fill="#0ACF83"/>
<path d="M8 12.0001C8 10.7121 9.008 9.66675 10.25 9.66675H12.5V14.3334H10.25C9.008 14.3334 8 13.2881 8 12.0001Z" fill="#A259FF"/>
<path d="M8 7.33333C8 6.04533 9.008 5 10.25 5H12.5V9.66667H10.25C9.008 9.66667 8 8.62133 8 7.33333Z" fill="#F24E1E"/>
<path d="M12.5 5H14.75C15.992 5 17 6.04533 17 7.33333C17 8.62133 15.992 9.66667 14.75 9.66667H12.5V5Z" fill="#FF7262"/>
<path d="M17 12.0001C17 13.2881 15.992 14.3334 14.75 14.3334C13.508 14.3334 12.5 13.2881 12.5 12.0001C12.5 10.7121 13.508 9.66675 14.75 9.66675C15.992 9.66675 17 10.7121 17 12.0001Z" fill="#1ABCFE"/>
</g>
<defs>
<clipPath id="clip0_750_1128">
<rect width="9" height="14" fill="white" transform="translate(8 5)"/>
</clipPath>
</defs>
</svg>
