<svg width="22" height="22" viewBox="0 0 22 22" fill="none" xmlns="http://www.w3.org/2000/svg">
<path d="M20.5234 1.64402C20.5156 1.60602 20.4971 1.57104 20.4701 1.54319C20.443 1.51533 20.4087 1.49576 20.3709 1.48676C17.8542 0.871446 12.0393 3.06414 8.8888 6.21332C8.32689 6.77069 7.81462 7.37597 7.35782 8.0223C6.3863 7.93637 5.41477 8.00812 4.58677 8.36906C2.25056 9.3973 1.57036 12.0803 1.38087 13.2344C1.37012 13.2976 1.37417 13.3624 1.39271 13.4237C1.41125 13.4851 1.44377 13.5413 1.4877 13.5879C1.53164 13.6346 1.5858 13.6704 1.64592 13.6925C1.70604 13.7147 1.77049 13.7226 1.83419 13.7157L5.58579 13.3019C5.58847 13.5847 5.60554 13.8672 5.63692 14.1484C5.6558 14.3436 5.74246 14.526 5.88184 14.664L7.33462 16.1133C7.47272 16.2525 7.65509 16.3391 7.85024 16.3582C8.12978 16.3895 8.41073 16.4066 8.692 16.4094L8.28036 20.1562C8.27349 20.2199 8.28147 20.2843 8.30367 20.3444C8.32587 20.4045 8.36169 20.4586 8.40831 20.5025C8.45493 20.5464 8.51109 20.579 8.57239 20.5975C8.63369 20.6161 8.69845 20.6202 8.76161 20.6096C9.9136 20.4248 12.6013 19.7446 13.6235 17.4084C13.9845 16.5804 14.0584 15.6136 13.975 14.6468C14.6229 14.19 15.2298 13.6776 15.7887 13.1154C18.9491 9.97094 21.1293 4.28574 20.5234 1.64402ZM12.6357 9.36422C12.3471 9.07582 12.1505 8.70832 12.0708 8.3082C11.9911 7.90808 12.0319 7.49331 12.188 7.11636C12.344 6.73941 12.6084 6.41721 12.9476 6.19052C13.2868 5.96383 13.6856 5.84283 14.0936 5.84283C14.5016 5.84283 14.9004 5.96383 15.2396 6.19052C15.5788 6.41721 15.8432 6.73941 15.9992 7.11636C16.1553 7.49331 16.1961 7.90808 16.1164 8.3082C16.0367 8.70832 15.8401 9.07582 15.5515 9.36422C15.3602 9.55585 15.1329 9.70788 14.8827 9.8116C14.6326 9.91533 14.3644 9.96872 14.0936 9.96872C13.8228 9.96872 13.5546 9.91533 13.3045 9.8116C13.0543 9.70788 12.827 9.55585 12.6357 9.36422Z" fill="white"/>
<path d="M7.23594 17.163C7.00047 17.3989 6.62277 17.4909 6.16816 17.5695C5.1468 17.7435 4.24488 16.8609 4.42836 15.8284C4.4984 15.437 4.70551 14.8882 4.83441 14.7593C4.86259 14.7317 4.88134 14.6959 4.88801 14.657C4.89468 14.6181 4.88893 14.5781 4.87156 14.5427C4.8542 14.5072 4.82611 14.4782 4.79129 14.4596C4.75647 14.441 4.71668 14.4339 4.67758 14.4392C4.10642 14.5091 3.57506 14.7681 3.16809 15.1748C2.15789 16.1859 2.0625 19.9375 2.0625 19.9375C2.0625 19.9375 5.81625 19.8421 6.82645 18.8311C7.2345 18.4244 7.49378 17.8923 7.5625 17.3203C7.5784 17.1407 7.35969 17.0337 7.23594 17.163Z" fill="white"/>
</svg>
