<svg width="193" height="32" viewBox="0 0 193 32" fill="none" xmlns="http://www.w3.org/2000/svg">
<path d="M177.929 2.44212C175.623 0.826658 172.129 0.0126138 167.54 0.0126138H155.544L151.08 24.743H135.361L136.375 19.1331H145.842L146.967 12.8227H137.506L138.514 7.24431H148.272L149.565 0H129.777L125.522 23.481H118.25L122.517 0.0378608H112.166L107.93 23.481H100.856L105.129 0.0378608H94.771L90.3002 24.743H74.4638L75.4656 19.1331H84.9699L86.0953 12.8732H76.5972L77.6051 7.28217H87.499L88.7914 0.0378608H27.035L23.5227 19.6001L16.5228 0.0378608H5.78174L0 32H10.2587L13.7587 11.8761L20.5607 32H57.3227L61.7873 7.28217H67.5443L63.0735 32H159.823L162.624 16.3944L167.163 32H177.428L172.729 19.2467L173.805 19.0132C175.962 18.6108 177.909 17.4415 179.302 15.7129C180.651 13.8451 181.336 11.5634 181.244 9.24472C181.244 6.22204 180.161 3.99447 177.929 2.44212ZM48.3873 24.743H32.6807L33.6949 19.1331H43.5454L44.6647 12.8227H34.913L35.853 7.27588H51.5347L48.3873 24.743ZM169.495 13.9586C168.462 14.6969 166.965 15.0566 164.919 15.0566H162.89L164.449 6.48076H165.939C167.639 6.48076 168.876 6.75842 169.736 7.32635C170.214 7.64957 170.601 8.09552 170.857 8.61942C171.113 9.14332 171.23 9.72675 171.195 10.3112C171.237 11.0163 171.104 11.721 170.806 12.3589C170.509 12.9969 170.057 13.5473 169.495 13.9586Z" fill="#8CC63E"/>
<path d="M188.386 22.9014C189.182 22.9129 189.962 23.1229 190.653 23.5116C191.382 23.8934 191.982 24.4767 192.379 25.1897C192.784 25.8822 192.998 26.6668 193 27.4657C192.992 28.258 192.778 29.0352 192.379 29.7235C191.984 30.4316 191.392 31.0139 190.671 31.4016C189.971 31.7938 189.18 32.0001 188.374 32.0001C187.568 32.0001 186.776 31.7938 186.077 31.4016C185.355 31.0156 184.762 30.4329 184.369 29.7235C183.964 29.0343 183.751 28.2525 183.751 27.4566C183.751 26.6607 183.964 25.8789 184.369 25.1897C184.767 24.478 185.367 23.8951 186.095 23.5116C186.794 23.1206 187.582 22.9107 188.386 22.9014ZM188.386 23.6519C187.734 23.6614 187.094 23.8291 186.524 24.1401C185.916 24.4618 185.416 24.9491 185.083 25.5436C184.746 26.1178 184.568 26.7691 184.568 27.4322C184.568 28.0952 184.746 28.7466 185.083 29.3208C185.416 29.9107 185.911 30.397 186.511 30.7243C187.096 31.0512 187.757 31.2236 188.43 31.2247C189.101 31.2242 189.76 31.0518 190.342 30.7243C190.944 30.3985 191.439 29.9119 191.77 29.3208C192.108 28.7466 192.285 28.0952 192.285 27.4322C192.285 26.7691 192.108 26.1178 191.77 25.5436C191.441 24.9466 190.94 24.4583 190.33 24.1401C189.735 23.816 189.066 23.6478 188.386 23.6519ZM186.337 29.9493V25.0676H188.039C188.457 25.0499 188.876 25.0952 189.28 25.2019C189.534 25.2885 189.751 25.4533 189.901 25.6717C190.051 25.8829 190.131 26.1343 190.131 26.3918C190.134 26.5639 190.101 26.7347 190.035 26.894C189.969 27.0534 189.87 27.198 189.746 27.3193C189.474 27.5924 189.104 27.7519 188.715 27.7648C188.87 27.8257 189.013 27.9123 189.138 28.021C189.415 28.3194 189.66 28.6445 189.87 28.9913L190.491 29.9493H189.51L189.069 29.1804C188.86 28.7564 188.577 28.3721 188.231 28.0455C188.049 27.9222 187.831 27.8621 187.61 27.8746H187.138V29.9493H186.337ZM187.138 27.1973H188.113C188.443 27.2284 188.775 27.1581 189.063 26.9959C189.145 26.9309 189.211 26.848 189.255 26.7537C189.3 26.6595 189.321 26.5565 189.318 26.4528C189.319 26.315 189.275 26.1804 189.194 26.0684C189.11 25.9497 188.991 25.8599 188.852 25.8121C188.592 25.7409 188.321 25.7121 188.051 25.7267H187.138V27.1973Z" fill="#8CC63E"/>
</svg>
