<svg width="20" height="20" viewBox="0 0 20 20" fill="none" xmlns="http://www.w3.org/2000/svg">
<g clip-path="url(#clip0_750_660)">
<path d="M8.75 3.75L9.375 2.5L10.625 1.875L9.375 1.25L8.75 0L8.125 1.25L6.875 1.875L8.125 2.5L8.75 3.75ZM3.125 6.25L4.16641 4.1668L6.25 3.125L4.16641 2.0832L3.125 0L2.08359 2.0832L0 3.125L2.08359 4.1668L3.125 6.25ZM16.875 11.25L15.8336 13.3332L13.75 14.375L15.8336 15.4168L16.875 17.5L17.9164 15.4168L20 14.375L17.9164 13.3332L16.875 11.25ZM19.6336 3.68086L16.3191 0.366406C16.0754 0.121875 15.7555 0 15.4355 0C15.1156 0 14.7957 0.121875 14.5516 0.366406L0.366406 14.5516C-0.121875 15.0398 -0.121875 15.8312 0.366406 16.3191L3.68086 19.6336C3.925 19.8777 4.24492 19.9996 4.56445 19.9996C4.88437 19.9996 5.2043 19.8777 5.44844 19.6336L19.6336 5.44805C20.1219 4.96055 20.1219 4.16875 19.6336 3.68086V3.68086ZM14.041 7.94765L12.0523 5.95898L15.4352 2.57617L17.4238 4.56484L14.041 7.94765V7.94765Z" fill="white"/>
</g>
<defs>
<clipPath id="clip0_750_660">
<rect width="20" height="20" fill="white"/>
</clipPath>
</defs>
</svg>
